<svg xmlns="http://www.w3.org/2000/svg" enable-background="new 0 0 60 60" viewBox="0 0 60 60" id="capcut"><g><path fill="#FFF" d="M50,60H10C4.477,60,0,55.523,0,50V10C0,4.477,4.477,0,10,0h40c5.523,0,10,4.477,10,10v40
		C60,55.523,55.523,60,50,60z"></path></g><g><path fill="#A7D3FC" d="M48.42,41.71C48.06,43.8,47.59,45.9,47,48c-12,2.67-24,2.67-36,0c-0.59-2.1-1.06-4.2-1.42-6.29L29,32
		L48.42,41.71z"></path><path fill="#0082F7" d="M45.418,21.79c-0.717,0-1.351-0.515-1.476-1.246c-0.305-1.77-0.691-3.539-1.149-5.271
		c-11.148-2.354-22.437-2.354-33.585,0c-0.458,1.732-0.844,3.501-1.149,5.271c-0.14,0.817-0.915,1.369-1.732,1.224
		c-0.816-0.14-1.364-0.916-1.224-1.732c0.373-2.168,0.862-4.335,1.454-6.441c0.149-0.532,0.579-0.938,1.119-1.059
		c12.16-2.705,24.491-2.705,36.651,0c0.54,0.12,0.969,0.527,1.119,1.059c0.591,2.106,1.081,4.273,1.454,6.441
		c0.141,0.816-0.407,1.592-1.224,1.732C45.588,21.783,45.502,21.79,45.418,21.79z"></path><polygon fill="#FFF" points="49.191 21.681 40.532 26.011 40.532 22.734 49.191 18.404"></polygon><path fill="#0082F7" d="M26,49.493c-6.123,0-12.246-0.676-18.326-2.029c-0.54-0.12-0.969-0.527-1.119-1.059
		c-0.591-2.106-1.081-4.273-1.454-6.441c-0.141-0.816,0.407-1.592,1.224-1.732c0.815-0.142,1.592,0.407,1.732,1.224
		c0.305,1.77,0.691,3.539,1.149,5.271c11.148,2.354,22.437,2.354,33.585,0c0.458-1.732,0.844-3.501,1.149-5.271
		c0.14-0.816,0.917-1.364,1.732-1.224c0.816,0.14,1.364,0.916,1.224,1.732c-0.373,2.168-0.862,4.335-1.454,6.441
		c-0.149,0.532-0.579,0.938-1.119,1.059C38.246,48.817,32.123,49.493,26,49.493z"></path><path fill="#0082F7" d="M55.999,46.5c-0.226,0-0.455-0.051-0.67-0.159l-49.42-24.71c-0.741-0.371-1.041-1.271-0.671-2.013
		c0.372-0.74,1.274-1.04,2.013-0.671l49.42,24.71c0.741,0.371,1.041,1.271,0.671,2.013C57.079,46.196,56.549,46.5,55.999,46.5z"></path><path fill="#0082F7" d="M6.581 41.21c-.55 0-1.08-.304-1.343-.83-.37-.741-.07-1.642.671-2.013l49.42-24.71c.741-.37 1.641-.07 2.013.671.37.741.07 1.642-.671 2.013l-49.42 24.71C7.036 41.159 6.807 41.21 6.581 41.21zM35.405 19.34c-.031 0-.062-.002-.094-.006-6.207-.778-12.414-.778-18.621 0-.412.052-.786-.24-.837-.651s.24-.786.651-.837c6.33-.794 12.664-.794 18.994 0 .411.051.703.426.651.837C36.101 19.062 35.777 19.34 35.405 19.34zM26 42.752c-3.137 0-6.332-.201-9.497-.598-.411-.051-.703-.426-.651-.837s.426-.7.837-.651c6.207.778 12.414.778 18.621 0 .413-.049.786.24.837.651.052.411-.24.786-.651.837C32.332 42.551 29.137 42.752 26 42.752z"></path></g></svg>