<svg xmlns="http://www.w3.org/2000/svg" viewBox="0 0 168 168" id="javascript"><circle cx="2" cy="150.25" r="2" fill="#2d4356"></circle><path fill="#2d4356" d="M11 148.25H8a2 2 0 0 0 0 4h3a2 2 0 0 0 0-4Z"></path><path fill="#0bceb2" d="M118.154 156.25h-8.308a2.006 2.006 0 0 0 0 4h8.308a2.006 2.006 0 0 0 0-4zm-60 0h-8.308a2.006 2.006 0 0 0 0 4h8.308a2.006 2.006 0 0 0 0-4zm45.846 0H64a2 2 0 0 0 0 4h15.94v2H72a2 2 0 0 0 0 4h25a2 2 0 0 0 0-4h-8.94v-2H104a2 2 0 0 0 0-4z"></path><path fill="#2d4356" d="M48 58.25h26a2 2 0 0 0 0-4H48a2 2 0 0 0 0 4Z"></path><path fill="#0bceb2" d="M48 66.25h33a2 2 0 0 0 0-4H48a2 2 0 0 0 0 4Z"></path><path fill="#2d4356" d="M48 74.25h42a2 2 0 0 0 0-4H48a2 2 0 0 0 0 4Z"></path><path fill="#0bceb2" d="M102 80.25a2 2 0 0 0-2-2H48a2 2 0 0 0 0 4h52a2 2 0 0 0 2-2Z"></path><path fill="#2d4356" d="M105.72 76.786a2 2 0 0 0 2.56-3.073L98.124 65.25l10.156-8.464a2 2 0 0 0-2.56-3.073l-12 10a2 2 0 0 0 0 3.073zm9.744-.256a2 2 0 0 0 2.816.256l12-10a2 2 0 0 0 0-3.073l-12-10a2 2 0 0 0-2.56 3.073l10.156 8.464-10.156 8.463a2 2 0 0 0-.256 2.817z"></path><path fill="#0bceb2" d="M114 32.25h-6a2 2 0 0 0 0 4h6a2 2 0 0 0 0-4zm14 0h-6a2 2 0 0 0 0 4h6a2 2 0 0 0 0-4zm-40.195 94.091a11.736 11.736 0 0 0 5.527 1.329c6.31 0 10.23-4.08 10.23-10.649V104.71a5.729 5.729 0 1 0-11.457 0v11.472a5.454 5.454 0 0 0-1.605-.238 5.557 5.557 0 0 0-5.55 5.55 5.47 5.47 0 0 0 2.855 4.848zm2.695-6.398a1.776 1.776 0 0 1 .686.149 6.015 6.015 0 0 0 2.146.447c1.998 0 2.773-1.49 2.773-3.518V104.71a1.729 1.729 0 1 1 3.458 0v12.312c0 3.816-1.67 6.649-6.23 6.649a7.781 7.781 0 0 1-3.548-.805 1.505 1.505 0 0 1-.836-1.372 1.54 1.54 0 0 1 1.551-1.55zm15.287-.716a5.574 5.574 0 0 0 .842 2.95c2.076 3.351 6.371 5.522 10.938 5.522 8.476 0 11.484-5.334 11.484-9.902a9.009 9.009 0 0 0-2.69-6.757 5.565 5.565 0 0 0 2.272-4.483 5.704 5.704 0 0 0-.972-3.175l-.025-.038-.027-.038c-1.978-2.821-5.732-4.505-10.042-4.505-7.5 0-10.856 4.749-10.856 9.455a8.719 8.719 0 0 0 2.112 5.979 5.62 5.62 0 0 0-3.036 4.992zm5.579-1.61a1.746 1.746 0 0 1 1.312.656 6.838 6.838 0 0 0 4.89 2.266c2.712 0 4.024-.894 4.024-2.742 0-4.353-10.881-2.356-10.881-9.54 0-2.952 2.116-5.456 6.856-5.456 2.982 0 5.576 1.103 6.768 2.802a1.722 1.722 0 0 1 .298.954 1.597 1.597 0 0 1-1.61 1.58 1.972 1.972 0 0 1-1.282-.656 6.162 6.162 0 0 0-4.174-1.58c-2.474 0-3.399 1.163-3.399 2.355 0 3.906 10.883 2.087 10.883 9.54 0 3.638-2.565 5.903-7.484 5.903a8.973 8.973 0 0 1-7.542-3.637 1.604 1.604 0 0 1 1.341-2.444z"></path><path fill="#2d4356" d="M160 148.25h-3a2 2 0 0 0 0 4h3a2 2 0 0 0 0-4Z"></path><circle cx="166" cy="150.25" r="2" fill="#2d4356"></circle><path fill="#2d4356" d="M150.721 148.25H135.48a10.95 10.95 0 0 0 2.521-7v-106a11.012 11.012 0 0 0-11-11H41a11.012 11.012 0 0 0-11 11v106a10.95 10.95 0 0 0 2.521 7H17.28a2.017 2.017 0 1 0 0 4H150.72a2.017 2.017 0 1 0 0-4zm-16.721-17H82a2.002 2.002 0 0 1-2-2v-32a2.002 2.002 0 0 1 2-2h52zm-92-96a7.008 7.008 0 0 1 7-7h78a7.008 7.008 0 0 1 7 7v5H42zm-8 0a7.004 7.004 0 0 1 6.501-6.975A10.948 10.948 0 0 0 38 35.25v106a10.948 10.948 0 0 0 2.501 6.975A7.004 7.004 0 0 1 34 141.25zm15 113a7.008 7.008 0 0 1-7-7v-97h92v47H82a6.007 6.007 0 0 0-6 6v32a6.007 6.007 0 0 0 6 6h52v6a7.008 7.008 0 0 1-7 7zm-43-113a3 3 0 1 0-3-3 3.003 3.003 0 0 0 3 3zm0-4.5a1.5 1.5 0 1 1-1.5 1.5 1.501 1.501 0 0 1 1.5-1.5zm116-22.5a2 2 0 1 0 2 2 2.002 2.002 0 0 0-2-2zm0 3a1 1 0 1 1 1-1 1.001 1.001 0 0 1-1 1zM15 1.75a2 2 0 1 0 2 2 2.002 2.002 0 0 0-2-2zm0 3a1 1 0 1 1 1-1 1.001 1.001 0 0 1-1 1zm148.029-.423a2 2 0 1 0 2 2 2.002 2.002 0 0 0-2-2zm0 3a1 1 0 1 1 1-1 1.001 1.001 0 0 1-1 1zM52.747 13.25a2 2 0 1 0-2 2 2.002 2.002 0 0 0 2-2zm-3 0a1 1 0 1 1 1 1 1.001 1.001 0 0 1-1-1z"></path><path fill="#0bceb2" d="m21.636 46.999 1.486-1.955-.939-.532-.954 2.19h-.032l-.969-2.175-.956.548 1.472 1.909v.031l-2.301-.297v1.064l2.316-.297v.031l-1.487 1.908.892.564 1.018-2.206h.031l.939 2.19.986-.563-1.502-1.878V47.5l2.361.282v-1.064l-2.361.313v-.032zM84.684 4.903l-.856 1.099.513.325.586-1.271h.018l.541 1.262.567-.325-.865-1.081v-.018l1.361.162v-.612l-1.361.18v-.018l.857-1.126-.541-.307-.55 1.261h-.018l-.558-1.252-.55.315.847 1.1v.018l-1.325-.171v.612l1.334-.171v.018zM163.029 57.771v-1.044l-2.317.307v-.03l1.458-1.919-.921-.521-.936 2.148h-.031l-.951-2.133-.937.537 1.443 1.873v.03l-2.256-.292v1.044l2.271-.291v.03l-1.458 1.872.875.553.998-2.164h.03l.921 2.149.967-.553-1.473-1.842v-.03l2.317.276zM146.701 35.038l1.258-1.655-.794-.45-.808 1.853h-.027l-.82-1.84-.808.464 1.245 1.615v.026L144 34.8v.9l1.96-.251v.026l-1.258 1.615.754.477.861-1.867h.026l.795 1.853.834-.476-1.271-1.589v-.026l1.999.238v-.9l-1.999.264v-.026z"></path></svg>